<svg id="Layer_4" data-name="Layer 4" xmlns="http://www.w3.org/2000/svg" viewBox="0 0 84.96 113.28"><defs><style>.cls-1{fill:#d71a5f;}.cls-2{fill:#151515;}.cls-3{fill:#dbad77;}</style></defs><title>akhwat</title><rect class="cls-1" width="84.96" height="113.28"/><path class="cls-2" d="M325.63,421.48c-6.1-8-16.39-14.14-15.42-32.62s-9.93-26.36-18.72-26.36-19.67,7.88-18.71,26.36-9.32,24.59-15.43,32.62-5.14,30.8-5.14,30.8h78.57S331.74,429.52,325.63,421.48Z" transform="translate(-249.01 -339)"/><path class="cls-3" d="M291.49,378.41c-10.53.8-13.73,7.07-13.73,7.07a24,24,0,0,0,.64,6.67h26.18a23.64,23.64,0,0,0,.65-6.67S302,379.21,291.49,378.41Z" transform="translate(-249.01 -339)"/></svg>