<svg id="Layer_4" data-name="Layer 4" xmlns="http://www.w3.org/2000/svg" viewBox="0 0 84.96 113.28"><defs><style>.cls-1{fill:#d71a5f;}.cls-2{fill:#e1a07a;}.cls-3{fill:#221c1e;}.cls-4{fill:#ae0032;}.cls-5{fill:#11151a;}</style></defs><title>ikhwan-santri</title><rect class="cls-1" width="84.96" height="113.28"/><path class="cls-2" d="M278.18,397.52c-2.93-17.95-15.37-15-15.37-15s-12.44-2.92-15.38,15a7.16,7.16,0,0,0-1,4.83c.41,2.56,1.71,4.74,3.55,5.52a13.72,13.72,0,0,0,1.38,4.84,17.81,17.81,0,0,0,4.18,4.78,6.73,6.73,0,0,1-.21,3.33c-1.56,4,7.5,5.87,7.5,5.87s9.05-1.9,7.5-5.87a6.65,6.65,0,0,1-.21-3.34,18.08,18.08,0,0,0,4.18-4.77,14.06,14.06,0,0,0,1.41-4.85c1.82-.8,3.11-3,3.51-5.51A7.16,7.16,0,0,0,278.18,397.52Z" transform="translate(-219.36 -337.15)"/><path class="cls-3" d="M282.57,428c-3-2.84-9.7-5.86-9.7-5.86l-10.06,3.43-10.06-3.43s-6.68,3-9.7,5.86-4.84,22.45-4.84,22.45H287.4S285.59,430.83,282.57,428Z" transform="translate(-219.36 -337.15)"/><polygon class="cls-4" points="43.45 88.25 42.35 88.25 42.35 113.28 43.45 113.28 44.54 113.28 44.54 88.25 43.45 88.25"/><path class="cls-4" d="M255.59,419.61l-.71.13-3.51,3.05s1.51,4.67,8.25,8.22l3.19-5.61S256.79,423.64,255.59,419.61Z" transform="translate(-219.36 -337.15)"/><path class="cls-4" d="M270,419.61l.72.13,3.5,3.05s-1.5,4.67-8.25,8.22l-3.18-5.61S268.82,423.64,270,419.61Z" transform="translate(-219.36 -337.15)"/><path class="cls-5" d="M249.44,398s-.06,2.27.08,5.1l1.12-6.66c.09-1.72.35-10.1,7.43-10.79h9.48c7.08.69,7.33,9.07,7.42,10.79l1,6.66.1.41c.16-3,.08-5.51.08-5.51,1.42-1.64,2-.43,2-.43s.42-7.95-3.12-13.56-12.25-5.1-12.25-5.1-8.71-.51-12.25,5.1-3.13,13.56-3.13,13.56S248,396.31,249.44,398Z" transform="translate(-219.36 -337.15)"/></svg>