<svg id="Layer_6" data-name="Layer 6" xmlns="http://www.w3.org/2000/svg" viewBox="0 0 84.96 113.28"><defs><style>.cls-1{fill:#d71a5f;}.cls-2{fill:#e1a07a;}.cls-3{fill:#11151a;}.cls-4{fill:#ccc;}.cls-5{fill:#221c1e;}.cls-6{fill:#ae0032;}</style></defs><title>ikhwan1</title><rect class="cls-1" width="84.96" height="113.28"/><path class="cls-2" d="M277.5,381.11c-.54-1.28-1.93,0-1.93,0l-.05-1.77-2.95-6.91-10.73-1-10.73,1-2.94,6.91-.06,1.77s-1.39-1.28-1.93,0-1.28,9.07,1.93,12.68c0,0,3.91,12,1.44,18.69l.38,9.88h23.82l.39-9.88c-2.47-6.64,1.43-18.69,1.43-18.69C278.79,390.18,278,382.4,277.5,381.11Z" transform="translate(-219.36 -337.15)"/><path class="cls-3" d="M248.17,379.15v5.06s.44-4.34,1.21-5.06S248.17,379.15,248.17,379.15Z" transform="translate(-219.36 -337.15)"/><path class="cls-3" d="M275.52,379.15v5.06s-.44-4.34-1.21-5.06S275.52,379.15,275.52,379.15Z" transform="translate(-219.36 -337.15)"/><path class="cls-4" d="M273.27,366.49c-3.06-4.5-11.43-5.41-11.43-5.41s-8.37.91-11.42,5.41c-1,1.66-2.25,12.85-2.25,12.85a44.76,44.76,0,0,1,27.35,0S274.23,368.15,273.27,366.49Z" transform="translate(-219.36 -337.15)"/><path class="cls-5" d="M295.93,421.93C294,419.36,275,411.86,275,411.86c-6.86,4.93-13.2,4.61-13.2,4.61s-6.33.32-13.19-4.61c0,0-19,7.5-20.89,10.07s-7.4,28.5-7.4,28.5h83S297.86,424.51,295.93,421.93Z" transform="translate(-219.36 -337.15)"/><path class="cls-3" d="M275.57,393.33s-4.71,5-6,10.23-4.39,4.12-5.46,3.27a5,5,0,0,0-4.53,0c-1.07.85-4.18,1.93-5.47-3.27s-6-10.23-6-10.23-.05,8.94.54,9.91,8.3,8.14,9.59,8.78a8.43,8.43,0,0,0,7.21,0c1.28-.64,9-7.82,9.59-8.78S275.57,393.33,275.57,393.33Z" transform="translate(-219.36 -337.15)"/><path class="cls-3" d="M250.58,381.52a3.06,3.06,0,0,1,2.62-1.43c1.72.11,6.38,2.31,7.07,2,0,0,.22,1.82-1.07,1.55S252.4,380,250.58,381.52Z" transform="translate(-219.36 -337.15)"/><path class="cls-3" d="M273.83,381.52a3.06,3.06,0,0,0-2.62-1.43c-1.72.11-6.38,2.31-7.08,2,0,0-.21,1.82,1.08,1.55S272,380,273.83,381.52Z" transform="translate(-219.36 -337.15)"/><path class="cls-6" d="M274.94,408.22a1.23,1.23,0,0,0-1.23.24c-1.76,1.76-7.28,6.29-11.92,6.24s-10.15-4.48-11.92-6.24a1.21,1.21,0,0,0-1.22-.24l-1.27,4.15c3,7.53,11.18,8,11.18,8v30H265v-30s8.22-.49,11.18-8Z" transform="translate(-219.36 -337.15)"/></svg>